<svg width="22" height="22" viewBox="0 0 22 22" fill="none" xmlns="http://www.w3.org/2000/svg">
<g clip-path="url(#clip0_3257_1190)">
<path d="M21.1524 10.9876C21.1524 13.4354 20.0828 15.783 18.1788 17.5138C16.2749 19.2447 13.6926 20.2171 11 20.2171C8.30745 20.2171 5.72516 19.2447 3.82122 17.5138C1.91728 15.783 0.847656 13.4354 0.847656 10.9876C0.847656 8.53984 1.91728 6.1923 3.82122 4.46145C5.72516 2.73059 8.30745 1.75821 11 1.75821C13.6926 1.75821 16.2749 2.73059 18.1788 4.46145C20.0828 6.1923 21.1524 8.53984 21.1524 10.9876Z" stroke="#555555" stroke-width="2.46618" stroke-linecap="round" stroke-linejoin="round"/>
<path d="M19.2715 1.49997C18.7055 1.49372 18.1488 1.79179 17.8751 2.24216L10.5491 12.7109L6.55297 9.15619C6.04124 8.54306 4.94951 8.42471 4.2935 8.91121C3.63748 9.39771 3.54584 10.3938 4.10375 10.9727L9.53927 17.0274C10.1868 17.7318 11.6071 17.6242 12.1174 16.832L20.6039 3.68766C20.8938 3.2566 20.9074 2.68348 20.6383 2.24148C20.3691 1.79948 19.8273 1.50547 19.2715 1.49997Z" fill="#076ECD"/>
</g>
<defs>
<clipPath id="clip0_3257_1190">
<rect width="22" height="22" fill="white"/>
</clipPath>
</defs>
</svg>
