<svg width="50" height="50" viewBox="0 0 50 50" fill="none" xmlns="http://www.w3.org/2000/svg">
<path d="M13.6168 15.0227C13.22 14.6372 13.22 14.0023 13.6168 13.6168C14.0023 13.22 14.6372 13.22 15.0227 13.6168L25 23.5828L34.9773 13.6168C35.3628 13.22 35.9977 13.22 36.3832 13.6168C36.78 14.0023 36.78 14.6372 36.3832 15.0227L26.4172 25L36.3832 34.9773C36.78 35.3628 36.78 35.9977 36.3832 36.3832C35.9977 36.78 35.3628 36.78 34.9773 36.3832L25 26.4172L15.0227 36.3832C14.6372 36.78 14.0023 36.78 13.6168 36.3832C13.22 35.9977 13.22 35.3628 13.6168 34.9773L23.5828 25L13.6168 15.0227ZM48.0045 25C48.0045 18.6508 45.4308 12.9025 41.2698 8.73016C37.0975 4.56916 31.3492 1.99546 25 1.99546C18.6508 1.99546 12.9025 4.56916 8.73016 8.73016C4.56916 12.9025 1.99546 18.6508 1.99546 25C1.99546 31.3492 4.56916 37.0975 8.73016 41.2698C12.9025 45.4308 18.6508 48.0045 25 48.0045C31.3492 48.0045 37.0975 45.4308 41.2698 41.2698C45.4308 37.0975 48.0045 31.3492 48.0045 25ZM42.6757 7.32426C47.1995 11.8481 50 18.0952 50 25C50 31.9048 47.1995 38.1519 42.6757 42.6757C38.1519 47.1995 31.9048 50 25 50C18.0952 50 11.8481 47.1995 7.32426 42.6757C2.80045 38.1519 0 31.9048 0 25C0 18.0952 2.80045 11.8481 7.32426 7.32426C11.8481 2.80045 18.0952 0 25 0C31.9048 0 38.1519 2.80045 42.6757 7.32426Z" fill="white"/>
</svg>
