<svg width="70" height="37" viewBox="0 0 70 37" fill="none" xmlns="http://www.w3.org/2000/svg">
<path d="M8.09629 0C7.01047 0 6.13628 0.74532 6.13628 1.67105V32.2396C6.13628 33.1199 5.99383 33.837 6.91358 33.9052H0.472125C-0.290191 33.9052 0.0996861 34.4229 0.0996861 35.0658V35.8395C0.0996861 36.4824 0.713367 37 1.47568 37H68.2119C68.9742 37 69.5879 36.4824 69.5879 35.8395V35.0658C69.5879 34.4229 69.9778 33.9052 69.2155 33.9052H62.774C63.6938 33.837 63.5513 33.1199 63.5513 32.2396V1.67105C63.5513 0.74532 62.6771 0 61.5913 0H8.09606H8.09629ZM25.0299 0.405265C25.3086 0.405265 25.5345 0.597874 25.5345 0.835436C25.5345 1.07299 25.3086 1.26556 25.0299 1.26556C24.7513 1.26556 24.5254 1.073 24.5254 0.835436C24.5254 0.597874 24.7513 0.405265 25.0299 0.405265ZM8.04857 1.67424H61.6393V32.236H8.04857V1.67424ZM26.1317 33.9107H43.5562C43.5302 34.2343 43.2718 34.4869 42.9546 34.4869H26.7332C26.416 34.4869 26.1577 34.2343 26.1317 33.9107ZM61.5105 34.8261C61.9209 34.8261 62.2536 35.1067 62.2536 35.4528C62.2536 35.7989 61.9209 36.0794 61.5105 36.0794C61.1002 36.0794 60.7675 35.7989 60.7675 35.4528C60.7675 35.1067 61.1002 34.8261 61.5105 34.8261ZM63.854 34.8261C64.2644 34.8261 64.597 35.1067 64.5971 35.4528C64.5971 35.7989 64.2644 36.0794 63.854 36.0794C63.4437 36.0794 63.111 35.7989 63.111 35.4528C63.111 35.1067 63.4437 34.8261 63.854 34.8261ZM66.1976 34.8261C66.6079 34.8261 66.9406 35.1067 66.9406 35.4528C66.9406 35.7989 66.6079 36.0794 66.1976 36.0794C65.7872 36.0794 65.4545 35.7989 65.4545 35.4528C65.4545 35.1067 65.7872 34.8261 66.1976 34.8261ZM3.06504 35.2411H6.96381C7.15439 35.2411 7.30782 35.3355 7.30782 35.4528C7.30782 35.57 7.15439 35.6644 6.96381 35.6644H3.06504C2.87446 35.6644 2.72102 35.57 2.72102 35.4528C2.72102 35.3355 2.87446 35.2411 3.06504 35.2411Z" fill="#F0F0F0"/>
</svg>
