<svg width="75" height="73" viewBox="0 0 75 73" fill="none" xmlns="http://www.w3.org/2000/svg">
<path d="M60.3857 1.3187C61.5853 1.27157 63.3786 1.36846 64.2959 1.83994L63.4059 2.69749C60.5551 5.27799 57.8081 8.47677 56.5523 11.6229C56.3124 12.3415 56.5278 12.9252 57.5261 13.2018C59.6995 13.6378 62.1528 13.6782 63.9847 15.6353C66.271 18.0273 61.7548 19.9362 63.9847 22.1749C65.0714 23.5182 64.3234 25.3799 63.519 26.6172C62.8415 27.2888 61.6419 27.5716 61.2327 28.3375C62.9544 31.4836 57.6331 31.5034 58.3164 35.58C67.9837 41.8251 75.5854 50.5722 74.9645 60.7402C73.8778 67.5744 64.9585 70.6262 58.2125 71.8634C49.7448 73.2067 39.4003 74.2083 32.2586 69.7189C25.5691 65.8069 21.3917 59.4087 23.5086 52.5271C24.6517 49.3338 26.43 46.3291 29.2243 43.7015C27.9683 43.1713 26.4864 43.7015 25.1175 43.7015C24.2566 44.6559 24.5388 45.9403 24.5953 47.1304C23.2263 47.7549 21.2223 47.2364 19.9098 48.0377C19.7405 49.758 20.305 50.6653 19.9098 52.15C16.311 52.3385 13.2205 52.7625 9.62155 52.6213C9.678 44.9859 9.18091 37.2817 5.50059 30.7751C3.72805 27.6413 2.03745 24.7365 0.0106882 21.4665C-0.102215 20.7949 0.703982 20.7219 1.26673 20.5592C7.67397 20.1703 13.7284 20.4531 20.1921 19.8876L22.2526 19.31C25.1175 16.3526 27.5167 13.3008 30.3675 10.3315C32.315 9.04694 34.94 10.0014 37.3535 9.57734C38.186 9.14137 37.7908 8.37547 37.4662 7.85701L33.5148 3.27339C32.7541 1.80443 34.9675 1.74993 35.9703 1.41166C39.7698 0.130412 41.0191 6.55727 44.3431 1.1089C46.9681 -0.316855 48.6344 2.82514 51.1463 2.2476C53.2593 -0.28576 57.9126 -0.791942 60.3824 1.31723L60.3857 1.3187Z" fill="black"/>
<path d="M48.1899 12.176C49.8624 14.571 51.8804 16.7657 53 19.3024C53 19.5383 52.3321 20.0096 52.111 20.0568C48.6831 20.4344 47.2675 17.6478 44.7521 16.3971C42.1121 17.1168 41.1825 19.1608 39.4548 20.789C39.109 22.7476 38.335 25.2253 39.5651 26.9951C38.9984 29.107 38.9984 31.4431 39.3302 33.6495C37.6715 36.316 35.1423 38.6639 32.6265 41L24.8786 40.8514L24.855 40.6152C24.233 34.7513 23.7802 27.4316 24.1119 21.4966C26.6413 18.3463 29.494 14.9502 32.4658 12.0713C37.5627 12.0254 43.2508 11.8927 48.1865 12.1762L48.1899 12.176Z" fill="white"/>
<path d="M61.3971 16.5203C61.9225 17.0109 62.129 18.0037 61.9189 18.5742C60.3163 19.2654 58.678 18.9538 56.9178 18.7535C55.9589 18.0625 55.2758 17.1312 55 16.1498C57.2331 16.1095 59.5318 15.6686 61.3963 16.5198L61.3971 16.5203Z" fill="white"/>
<path d="M61.9971 23.4198C62.0537 24.6132 61.289 25.7736 60.0284 25.9421L43.2864 27C42.3248 27 41.7206 26.5 41.2184 25.6381C40.7083 24.557 41.1541 23.5555 41.9123 22.9003C44.9576 21.3699 48.3841 21.6782 52.3513 21.3699C56.4608 21.3426 61.3298 19.7417 61.9967 23.4194L61.9971 23.4198Z" fill="white"/>
<path d="M58.9977 29.4639C58.9977 30.6523 58.0823 31.4977 56.7726 31.5957C52.7872 31.755 47.9035 31.853 43.9182 32.0001C42.8338 31.853 42.169 31.4487 42 30.4073C42 29.8066 42.1876 28.823 43.5051 28.5509C47.9552 28.5509 51.9845 28.1961 56.5473 28.0001C57.5213 28.0154 58.8885 28.3727 59 29.4635L58.9977 29.4639Z" fill="white"/>
<path d="M54.9484 34.2178C55.9641 34.4261 56.1885 35.4132 55.8582 35.9543C55.591 36.3922 55.3922 36.5802 54.1302 36.6507L43.8697 37.0001C42.9657 37.0001 42.1299 36.6179 42.0155 36.0144C41.8434 34.9484 43.1307 34.3187 44.4631 34.2384C48.23 34.1979 51.2945 33.7355 54.948 34.2188L54.9484 34.2178Z" fill="white"/>
</svg>
