<svg width="101" height="77" viewBox="0 0 101 77" fill="none" xmlns="http://www.w3.org/2000/svg">
<path d="M1 28.551L1.80544 72.9868L99.2636 73.5321L99.5321 28.8232L1 28.551Z" fill="white" stroke="black" stroke-width="2.00002" stroke-linecap="round" stroke-linejoin="round"/>
<path d="M64.6592 21.8035L64.9061 23.5675L90.3641 23.6935L90.3376 21.5515L64.6592 21.8035Z" fill="white" stroke="black" stroke-width="2.00002" stroke-linecap="round" stroke-linejoin="round"/>
<path d="M9.25879 21.2648V23.5654H36.2311L35.9985 21.1854L9.25879 21.2648Z" fill="white" stroke="black" stroke-width="2.00002" stroke-linecap="round" stroke-linejoin="round"/>
<path d="M49.501 4.10687L49.5837 15.908L51.0792 15.7686L51.1962 4.13572L49.501 4.10687Z" fill="white" stroke="black" stroke-width="0.999967" stroke-linecap="round" stroke-linejoin="round"/>
<path d="M53.4884 1.00003L53.0889 16.3142L55.2865 16.1459V1L53.4884 1.00003Z" fill="white" stroke="black" stroke-width="0.999967" stroke-linecap="round" stroke-linejoin="round"/>
<path d="M35.541 15.9366L35.7518 74.2856L66.0986 74.5405L65.6164 16.0881L35.541 15.9366Z" fill="white" stroke="black" stroke-width="2.00002" stroke-linecap="round" stroke-linejoin="round"/>
<path d="M30.4883 60.5914V76L33.902 75.9797L33.7649 60.5133L30.4883 60.5914Z" fill="white" stroke="black" stroke-width="2.00002" stroke-linecap="round" stroke-linejoin="round"/>
<path d="M67.5649 60.0305L67.3994 75.466L70.8414 75.3897L70.6074 59.7703L67.5649 60.0305Z" fill="white" stroke="black" stroke-width="2.00002" stroke-linecap="round" stroke-linejoin="round"/>
<path d="M29.5518 53.064V60.4418L71.9502 60.6101L71.8693 53.237L29.5518 53.064Z" fill="white" stroke="black" stroke-width="2.00002" stroke-linecap="round" stroke-linejoin="round"/>
<path d="M41.8359 62.8225L42.0014 74.1039L60.5078 74.4724L60.3397 62.8988L41.8359 62.8225Z" fill="white" stroke="black" stroke-width="0.999967" stroke-linecap="round" stroke-linejoin="round"/>
<path d="M51.1465 63.0316L51.3475 74.3041L51.1465 63.0316Z" fill="white"/>
<path d="M51.1465 63.0316L51.3475 74.3041" stroke="black" stroke-width="0.999967" stroke-linecap="round" stroke-linejoin="round"/>
<path d="M46.8311 23.3163V29.0283L53.1902 28.7903V23.3165L46.8311 23.3163Z" fill="white" stroke="black" stroke-width="0.999967" stroke-linecap="round" stroke-linejoin="round"/>
<path d="M48.3045 13.4097C48.3045 15.1841 46.8963 16.6226 45.1591 16.6226C43.4219 16.6226 42.0137 15.1841 42.0137 13.4097C42.0137 11.6353 43.4219 10.1968 45.1591 10.1968C46.8963 10.1968 48.3045 11.6353 48.3045 13.4097Z" fill="white" stroke="black" stroke-width="0.999995" stroke-linecap="round" stroke-linejoin="round"/>
<path d="M75.3559 34.7401L75.1904 39.9761H83.3818V34.5023L75.3559 34.7401Z" fill="white" stroke="black" stroke-width="0.999967" stroke-linecap="round" stroke-linejoin="round"/>
<path d="M86.6582 34.5015V39.7375H94.8495V34.2637L86.6582 34.5015Z" fill="white" stroke="black" stroke-width="0.999967" stroke-linecap="round" stroke-linejoin="round"/>
<path d="M86.6582 34.5015V39.7375H94.8495V34.2637L86.6582 34.5015Z" fill="white" stroke="black" stroke-width="0.999967" stroke-linecap="round" stroke-linejoin="round"/>
<path d="M75.4238 44.5675V49.9717H83.6152V44.4979L75.4238 44.5675Z" fill="white" stroke="black" stroke-width="0.999967" stroke-linecap="round" stroke-linejoin="round"/>
<path d="M86.6582 44.4962V49.7321H94.8495V44.2583L86.6582 44.4962Z" fill="white" stroke="black" stroke-width="0.999967" stroke-linecap="round" stroke-linejoin="round"/>
<path d="M75.5922 52.9656L75.4268 58.5381H83.6181V53.0643L75.5922 52.9656Z" fill="white" stroke="black" stroke-width="0.999967" stroke-linecap="round" stroke-linejoin="round"/>
<path d="M86.6582 53.0641V58.3H94.8495V52.8262L86.6582 53.0641Z" fill="white" stroke="black" stroke-width="0.999967" stroke-linecap="round" stroke-linejoin="round"/>
<path d="M74.957 62.1091V67.3451H83.1484V61.8713L74.957 62.1091Z" fill="white" stroke="black" stroke-width="0.999967" stroke-linecap="round" stroke-linejoin="round"/>
<path d="M86.1924 61.8705V67.1064H94.3837V61.6326L86.1924 61.8705Z" fill="white" stroke="black" stroke-width="0.999967" stroke-linecap="round" stroke-linejoin="round"/>
<path d="M6.84961 32.8362V38.0721H15.041V32.5983L6.84961 32.8362Z" fill="white" stroke="black" stroke-width="0.999967" stroke-linecap="round" stroke-linejoin="round"/>
<path d="M18.3174 32.5975V37.8335H26.5087V32.3597L18.3174 32.5975Z" fill="white" stroke="black" stroke-width="0.999967" stroke-linecap="round" stroke-linejoin="round"/>
<path d="M18.4848 32.4278L18.3193 37.832H26.5107V32.3582L18.4848 32.4278Z" fill="white" stroke="black" stroke-width="0.999967" stroke-linecap="round" stroke-linejoin="round"/>
<path d="M7.08398 42.8308V48.0667H15.2753V42.5929L7.08398 42.8308Z" fill="white" stroke="black" stroke-width="0.999967" stroke-linecap="round" stroke-linejoin="round"/>
<path d="M18.3174 42.5922V47.8281H26.5087V42.3543L18.3174 42.5922Z" fill="white" stroke="black" stroke-width="0.999967" stroke-linecap="round" stroke-linejoin="round"/>
<path d="M7.08398 51.3986V56.6346H15.2753V51.1608L7.08398 51.3986Z" fill="white" stroke="black" stroke-width="0.999967" stroke-linecap="round" stroke-linejoin="round"/>
<path d="M18.3174 51.1601V56.396H26.5087V50.9222L18.3174 51.1601Z" fill="white" stroke="black" stroke-width="0.999967" stroke-linecap="round" stroke-linejoin="round"/>
<path d="M6.61719 60.2052V65.4411H14.8085V59.9673L6.61719 60.2052Z" fill="white" stroke="black" stroke-width="0.999967" stroke-linecap="round" stroke-linejoin="round"/>
<path d="M17.8506 59.9666V65.2025H26.0419V59.7287L17.8506 59.9666Z" fill="white" stroke="black" stroke-width="0.999967" stroke-linecap="round" stroke-linejoin="round"/>
<path d="M11.7622 23.7198L11.5967 28.4318H13.0861V23.7198H11.7622Z" fill="white" stroke="black" stroke-width="0.999967" stroke-linecap="round" stroke-linejoin="round"/>
<path d="M19.2104 23.7198L19.0449 28.4318H20.5343V23.7198H19.2104Z" fill="white" stroke="black" stroke-width="0.999967" stroke-linecap="round" stroke-linejoin="round"/>
<path d="M19.2104 23.7198L19.0449 28.4318H20.5343V23.7198H19.2104Z" fill="white" stroke="black" stroke-width="0.999967" stroke-linecap="round" stroke-linejoin="round"/>
<path d="M27.979 23.887L27.8135 28.599H29.3029V23.887H27.979Z" fill="white" stroke="black" stroke-width="0.999967" stroke-linecap="round" stroke-linejoin="round"/>
<path d="M69.6841 23.887L69.5186 28.599H71.008V23.887H69.6841Z" fill="white" stroke="black" stroke-width="0.999967" stroke-linecap="round" stroke-linejoin="round"/>
<path d="M76.9672 23.887L76.8018 28.599H78.2912V23.887H76.9672Z" fill="white" stroke="black" stroke-width="0.999967" stroke-linecap="round" stroke-linejoin="round"/>
<path d="M84.2485 23.887L84.083 28.599H85.5724V23.887H84.2485Z" fill="white" stroke="black" stroke-width="0.999967" stroke-linecap="round" stroke-linejoin="round"/>
<path d="M46.8311 33.0748V38.7867L53.3073 38.9057L53.1903 33.0748L46.8311 33.0748Z" fill="white" stroke="black" stroke-width="0.999967" stroke-linecap="round" stroke-linejoin="round"/>
<path d="M46.8311 41.8272V47.5391L53.1902 47.6377V41.8271L46.8311 41.8272Z" fill="white" stroke="black" stroke-width="0.999967" stroke-linecap="round" stroke-linejoin="round"/>
</svg>
