<svg width="283" height="52" viewBox="0 0 283 52" fill="none" xmlns="http://www.w3.org/2000/svg">
<path d="M62.7 34V19.8H68.78C69.4067 19.8 69.98 19.9333 70.5 20.2C71.02 20.4533 71.4733 20.8 71.86 21.24C72.2467 21.6667 72.5467 22.1533 72.76 22.7C72.9733 23.2333 73.08 23.78 73.08 24.34C73.08 24.9933 72.9533 25.6133 72.7 26.2C72.46 26.7867 72.1133 27.2867 71.66 27.7C71.22 28.1133 70.7 28.4 70.1 28.56L73.54 34H71.5L68.26 28.9H64.5V34H62.7ZM64.5 27.3H68.8C69.2933 27.3 69.72 27.1667 70.08 26.9C70.4533 26.62 70.74 26.2533 70.94 25.8C71.1533 25.3467 71.26 24.86 71.26 24.34C71.26 23.8067 71.14 23.32 70.9 22.88C70.66 22.4267 70.3467 22.0667 69.96 21.8C69.5733 21.5333 69.1467 21.4 68.68 21.4H64.5V27.3ZM85.4845 32.4V34H75.8445V19.8H85.3045V21.4H77.6445V26H84.3045V27.5H77.6445V32.4H85.4845ZM89.7539 23.12V34H87.9539V19.8H89.4739L98.1539 30.9V19.82H99.9539V34H98.3139L89.7539 23.12ZM113.585 21.4H108.685V34H106.885V21.4H101.985V19.8H113.585V21.4ZM116.03 19.8L120.73 31.74L125.41 19.8H127.31L121.55 34H119.91L114.13 19.8H116.03ZM138.863 32.4V34H129.223V19.8H138.683V21.4H131.023V26H137.683V27.5H131.023V32.4H138.863ZM143.133 23.12V34H141.333V19.8H142.853L151.533 30.9V19.82H153.333V34H151.693L143.133 23.12ZM162.583 34.1C161.45 34.1 160.497 33.9067 159.723 33.52C158.95 33.12 158.33 32.5867 157.863 31.92C157.397 31.24 157.057 30.4733 156.843 29.62C156.63 28.7667 156.523 27.8867 156.523 26.98V19.8H158.323V26.98C158.323 27.6733 158.39 28.3533 158.523 29.02C158.67 29.6733 158.903 30.26 159.223 30.78C159.543 31.3 159.977 31.7133 160.523 32.02C161.07 32.3267 161.75 32.48 162.563 32.48C163.39 32.48 164.077 32.3267 164.623 32.02C165.17 31.7 165.603 31.28 165.923 30.76C166.243 30.2267 166.47 29.6333 166.603 28.98C166.75 28.3267 166.823 27.66 166.823 26.98V19.8H168.623V26.98C168.623 27.94 168.51 28.8533 168.283 29.72C168.07 30.5733 167.723 31.3267 167.243 31.98C166.763 32.6333 166.137 33.1533 165.363 33.54C164.603 33.9133 163.677 34.1 162.583 34.1ZM181.461 32.4V34H171.821V19.8H181.281V21.4H173.621V26H180.281V27.5H173.621V32.4H181.461ZM182.737 26.8C182.737 25.9333 182.884 25.0867 183.177 24.26C183.484 23.42 183.924 22.66 184.497 21.98C185.084 21.2867 185.797 20.74 186.637 20.34C187.477 19.9267 188.43 19.72 189.497 19.72C190.764 19.72 191.85 20.0133 192.757 20.6C193.664 21.1733 194.337 21.9133 194.777 22.82L193.357 23.74C193.077 23.14 192.717 22.6667 192.277 22.32C191.85 21.96 191.384 21.7067 190.877 21.56C190.384 21.4133 189.897 21.34 189.417 21.34C188.63 21.34 187.93 21.5 187.317 21.82C186.717 22.14 186.21 22.5667 185.797 23.1C185.384 23.6333 185.07 24.2333 184.857 24.9C184.657 25.5533 184.557 26.2133 184.557 26.88C184.557 27.6133 184.677 28.32 184.917 29C185.17 29.68 185.517 30.28 185.957 30.8C186.397 31.32 186.917 31.7333 187.517 32.04C188.117 32.3467 188.77 32.5 189.477 32.5C189.97 32.5 190.477 32.4133 190.997 32.24C191.517 32.0667 192.004 31.8 192.457 31.44C192.91 31.0667 193.27 30.5867 193.537 30L195.037 30.82C194.744 31.5267 194.29 32.1267 193.677 32.62C193.064 33.1133 192.377 33.4867 191.617 33.74C190.87 33.9933 190.13 34.12 189.397 34.12C188.424 34.12 187.53 33.9133 186.717 33.5C185.904 33.0733 185.197 32.5133 184.597 31.82C184.01 31.1133 183.55 30.3267 183.217 29.46C182.897 28.58 182.737 27.6933 182.737 26.8ZM206.93 32.4V34H197.29V19.8H206.75V21.4H199.09V26H205.75V27.5H199.09V32.4H206.93ZM211.199 23.12V34H209.399V19.8H210.919L219.599 30.9V19.82H221.399V34H219.759L211.199 23.12ZM235.03 21.4H230.13V34H228.33V21.4H223.43V19.8H235.03V21.4ZM246.715 32.4V34H237.075V19.8H246.535V21.4H238.875V26H245.535V27.5H238.875V32.4H246.715ZM249.184 34V19.8H255.264C255.891 19.8 256.464 19.9333 256.984 20.2C257.504 20.4533 257.958 20.8 258.344 21.24C258.731 21.6667 259.031 22.1533 259.244 22.7C259.458 23.2333 259.564 23.78 259.564 24.34C259.564 24.9933 259.438 25.6133 259.184 26.2C258.944 26.7867 258.598 27.2867 258.144 27.7C257.704 28.1133 257.184 28.4 256.584 28.56L260.024 34H257.984L254.744 28.9H250.984V34H249.184ZM250.984 27.3H255.284C255.778 27.3 256.204 27.1667 256.564 26.9C256.938 26.62 257.224 26.2533 257.424 25.8C257.638 25.3467 257.744 24.86 257.744 24.34C257.744 23.8067 257.624 23.32 257.384 22.88C257.144 22.4267 256.831 22.0667 256.444 21.8C256.058 21.5333 255.631 21.4 255.164 21.4H250.984V27.3Z" fill="white"/>
<path d="M25.5 51C39.5833 51 51 39.5833 51 25.5C51 11.4167 39.5833 0 25.5 0C11.4167 0 0 11.4167 0 25.5C0 39.5833 11.4167 51 25.5 51Z" fill="#1C8ADB"/>
<mask id="mask0_3265_2" style="mask-type:luminance" maskUnits="userSpaceOnUse" x="0" y="0" width="52" height="52">
<g opacity="0.42">
<path d="M25.5404 51.0807C39.6459 51.0807 51.0807 39.6459 51.0807 25.5404C51.0807 11.4348 39.6459 0 25.5404 0C11.4348 0 0 11.4348 0 25.5404C0 39.6459 11.4348 51.0807 25.5404 51.0807Z" fill="white"/>
</g>
</mask>
<g mask="url(#mask0_3265_2)">
<path opacity="0.42" d="M25.5405 12.2389L17.6108 19.4164C11.6111 24.7039 6.35135 29.8758 1.31543 35.0254C4.8732 44.444 11.7538 50.5016 24.0745 51.0558L36.1665 38.9637V27.438L39.176 24.579L33.4711 19.4162L25.5405 12.2389Z" fill="url(#paint0_linear_3265_2)"/>
</g>
<mask id="mask1_3265_2" style="mask-type:luminance" maskUnits="userSpaceOnUse" x="0" y="0" width="52" height="52">
<path d="M25.5404 51.0807C39.6459 51.0807 51.0807 39.6459 51.0807 25.5404C51.0807 11.4348 39.6459 0 25.5404 0C11.4348 0 0 11.4348 0 25.5404C0 39.6459 11.4348 51.0807 25.5404 51.0807Z" fill="white"/>
</mask>
<g mask="url(#mask1_3265_2)">
<path d="M25.5405 12.2389L17.6108 19.4164L11.9043 24.5792H13.8247L19.0504 19.851L25.5402 13.9742L32.0319 19.851L37.2576 24.5792H39.1763L33.4714 19.4164L25.5405 12.2389ZM25.5405 14.9624L20.2289 19.7716L14.9157 24.5792V38.9635H21.9763V27.8068H29.1066V38.9635H36.1672V24.5792L30.854 19.7716L25.5405 14.9624ZM23.3722 29.2299V38.964H27.7088V29.2299H23.3722Z" fill="white"/>
</g>
<defs>
<linearGradient id="paint0_linear_3265_2" x1="25.7071" y1="26.4847" x2="3.7456" y2="50.5137" gradientUnits="userSpaceOnUse">
<stop/>
<stop offset="1" stop-opacity="0"/>
</linearGradient>
</defs>
</svg>
