<svg width="30" height="30" viewBox="0 0 30 30" fill="none" xmlns="http://www.w3.org/2000/svg">
<g clip-path="url(#clip0_3257_580)">
<path d="M15 30C23.2843 30 30 23.2843 30 15C30 6.71573 23.2843 0 15 0C6.71573 0 0 6.71573 0 15C0 23.2843 6.71573 30 15 30Z" fill="#039BE5"/>
<path d="M6.86383 14.675L21.3263 9.09877C21.9976 8.85627 22.5838 9.26252 22.3663 10.2775L22.3676 10.2763L19.9051 21.8775C19.7226 22.7 19.2338 22.9 18.5501 22.5125L14.8001 19.7488L12.9913 21.4913C12.7913 21.6913 12.6226 21.86 12.2351 21.86L12.5013 18.0438L19.4513 11.765C19.7538 11.4988 19.3838 11.3488 18.9851 11.6138L10.3963 17.0213L6.69383 15.8663C5.89008 15.6113 5.87258 15.0625 6.86383 14.675Z" fill="white"/>
</g>
<defs>
<clipPath id="clip0_3257_580">
<rect width="30" height="30" fill="white"/>
</clipPath>
</defs>
</svg>
