<svg width="30" height="30" viewBox="0 0 30 30" fill="none" xmlns="http://www.w3.org/2000/svg">
<g clip-path="url(#clip0_3257_547)">
<path d="M15.0095 9.69321C15.0078 9.69321 15.0062 9.69304 15.0045 9.69304C15.0028 9.69292 15.0049 9.69304 15.0095 9.69321Z" fill="white"/>
<path d="M15.0049 9.69287C15.0066 9.69287 15.0082 9.69305 15.0099 9.69305C15.1215 9.69703 16.936 9.74701 15.0049 9.69287Z" fill="white"/>
<path d="M18.0601 13.6535C18.0521 13.5156 18.0567 13.6785 18.0601 13.6535V13.6535Z" fill="white"/>
<path d="M16.8096 13.6048C16.8122 13.6047 16.8147 13.6033 16.8173 13.603C16.8102 13.603 16.7993 13.6032 16.7881 13.6036C16.7954 13.6038 16.802 13.6049 16.8096 13.6048Z" fill="white"/>
<path d="M16.8094 13.6049C16.8018 13.605 16.7952 13.6039 16.7879 13.6036C16.7515 13.6046 16.7139 13.6066 16.8094 13.6049Z" fill="white"/>
<path d="M16.8172 13.603C16.8146 13.6033 16.8121 13.6047 16.8096 13.6048C16.8292 13.6035 16.8275 13.603 16.8172 13.603Z" fill="white"/>
<path d="M15 30C23.2843 30 30 23.2843 30 15C30 6.71573 23.2843 0 15 0C6.71573 0 0 6.71573 0 15C0 23.2843 6.71573 30 15 30Z" fill="#6F3FAA"/>
<path d="M21.5071 8.22906C17.856 7.34723 14.1984 6.31574 10.4541 7.62625C8.02989 8.53533 8.02989 11.1616 8.13091 13.3838C8.13091 13.9899 7.42386 14.798 7.72685 15.5051C8.33288 17.5253 8.83796 19.5455 10.9592 20.5556C11.2622 20.7576 10.9592 21.1616 11.1612 21.4646C11.0602 21.4646 10.8582 21.5657 10.8582 21.6667C10.8582 22.1508 11.0754 22.8914 10.9311 23.3688L17.3768 29.8118C24.0031 28.7565 29.1821 23.3625 29.9108 16.6328L21.5071 8.22906Z" fill="#512D84"/>
<path d="M22.9351 10.5424L22.9302 10.5226C22.5294 8.90234 20.7225 7.16374 19.0631 6.80205L19.0445 6.79818C16.3605 6.28619 13.6391 6.28619 10.9558 6.79818L10.9365 6.80205C9.27769 7.16374 7.47072 8.90246 7.06941 10.5226L7.06496 10.5424C6.56949 12.8052 6.56949 15.0999 7.06496 17.3626L7.06941 17.3824C7.45367 18.9335 9.126 20.5923 10.7234 21.0485V22.8571C10.7234 23.5118 11.5212 23.8333 11.9748 23.3609L13.8073 21.4561C14.2048 21.4783 14.6025 21.4907 15.0001 21.4907C16.3511 21.4907 17.7027 21.3629 19.0444 21.1069L19.0631 21.1031C20.7225 20.7414 22.5294 19.0027 22.9302 17.3825L22.9351 17.3627C23.4305 15.0999 23.4305 12.8053 22.9351 10.5424ZM21.4849 17.0346C21.2173 18.0917 19.8454 19.4058 18.7553 19.6486C17.3282 19.92 15.8898 20.036 14.4529 19.9962C14.4243 19.9954 14.3968 20.0065 14.3769 20.027C14.173 20.2363 13.0389 21.4006 13.0389 21.4006L11.6158 22.8612C11.5118 22.9697 11.3289 22.8958 11.3289 22.7461V19.7499C11.3289 19.7003 11.2936 19.6583 11.245 19.6487C11.2447 19.6486 11.2445 19.6486 11.2442 19.6486C10.1541 19.4057 8.78264 18.0916 8.51457 17.0345C8.06861 14.9892 8.06861 12.9158 8.51457 10.8706C8.78264 9.81347 10.1541 8.49933 11.2442 8.25652C13.7365 7.78249 16.2635 7.78249 18.7553 8.25652C19.846 8.49933 21.2173 9.81347 21.4849 10.8706C21.9314 12.9159 21.9314 14.9893 21.4849 17.0346Z" fill="white"/>
<path d="M17.3709 18.4176C17.2033 18.3667 17.0437 18.3325 16.8952 18.2711C15.3583 17.6334 13.9438 16.8107 12.8234 15.5497C12.1863 14.8327 11.6876 14.0231 11.2661 13.1663C11.0662 12.76 10.8977 12.3379 10.726 11.9183C10.5694 11.5358 10.8 11.1407 11.0428 10.8524C11.2707 10.5819 11.564 10.3749 11.8815 10.2223C12.1294 10.1032 12.3738 10.1719 12.5549 10.3819C12.9462 10.8362 13.3057 11.3136 13.5967 11.8401C13.7757 12.1639 13.7266 12.5598 13.4022 12.7802C13.3233 12.8337 13.2515 12.8967 13.178 12.9571C13.1136 13.0102 13.053 13.0637 13.0088 13.1355C12.9281 13.2668 12.9243 13.4218 12.9762 13.5646C13.3762 14.6638 14.0504 15.5187 15.157 15.9792C15.3341 16.0529 15.5118 16.1386 15.7159 16.1149C16.0575 16.075 16.1681 15.7002 16.4075 15.5044C16.6415 15.3131 16.9405 15.3106 17.1925 15.4701C17.4447 15.6297 17.689 15.8009 17.9319 15.9741C18.1704 16.144 18.4078 16.3101 18.6277 16.5039C18.8392 16.6901 18.912 16.9345 18.7929 17.1872C18.5749 17.6501 18.2577 18.0352 17.8001 18.281C17.6709 18.3503 17.5166 18.3727 17.3709 18.4176C17.5166 18.3727 17.2033 18.3667 17.3709 18.4176Z" fill="white"/>
<path d="M15.0039 9.69293C17.0142 9.7493 18.6654 11.0834 19.0193 13.0709C19.0796 13.4096 19.101 13.7558 19.1278 14.0995C19.1392 14.2441 19.0572 14.3814 18.9013 14.3834C18.7401 14.3853 18.6676 14.2504 18.6571 14.106C18.6364 13.8199 18.6221 13.5325 18.5826 13.2489C18.3746 11.7513 17.1804 10.5124 15.6898 10.2465C15.4654 10.2065 15.236 10.196 15.0087 10.1722C14.8651 10.1571 14.677 10.1484 14.6452 9.96985C14.6185 9.82014 14.7448 9.70096 14.8874 9.69329C14.926 9.691 14.965 9.69282 15.0039 9.69293C17.0143 9.7493 14.965 9.69282 15.0039 9.69293Z" fill="white"/>
<path d="M18.059 13.6534C18.0557 13.6786 18.054 13.7376 18.0392 13.7931C17.9859 13.9949 17.6798 14.0202 17.6094 13.8165C17.5885 13.7561 17.5854 13.6873 17.5853 13.6223C17.5846 13.1966 17.4921 12.7712 17.2773 12.4007C17.0566 12.0199 16.7193 11.6999 16.3239 11.5061C16.0847 11.3891 15.8261 11.3162 15.564 11.2729C15.4494 11.2539 15.3337 11.2425 15.2185 11.2265C15.079 11.2071 15.0045 11.1182 15.0112 10.9807C15.0173 10.8519 15.1115 10.7592 15.2519 10.7672C15.7132 10.7933 16.1588 10.8932 16.569 11.1103C17.4031 11.5521 17.8796 12.2492 18.0187 13.1802C18.0249 13.2225 18.035 13.2642 18.0382 13.3065C18.0461 13.4109 18.0511 13.5155 18.059 13.6534C18.0557 13.6784 18.0511 13.5155 18.059 13.6534Z" fill="white"/>
<path d="M16.8089 13.6048C16.6407 13.6079 16.5507 13.5147 16.5333 13.3606C16.5213 13.2531 16.5117 13.1441 16.486 13.0395C16.4355 12.8334 16.326 12.6425 16.1527 12.5163C16.0709 12.4567 15.9781 12.4132 15.881 12.3851C15.7577 12.3494 15.6295 12.3593 15.5065 12.3292C15.3729 12.2964 15.2989 12.1881 15.3199 12.0628C15.3391 11.9487 15.45 11.8596 15.5748 11.8687C16.3542 11.9249 16.9112 12.3279 16.9908 13.2455C16.9964 13.3102 17.003 13.3786 16.9886 13.4406C16.9639 13.5465 16.8854 13.5997 16.8089 13.6048C16.8854 13.5997 16.6407 13.6078 16.8089 13.6048Z" fill="white"/>
<path d="M22.9355 10.5424L22.9305 10.5226C22.7059 9.61436 22.0392 8.669 21.2045 7.94971L20.076 8.94979C20.7471 9.48445 21.322 10.2251 21.4853 10.8705C21.9318 12.9158 21.9318 14.9892 21.4853 17.0346C21.2177 18.0916 19.8458 19.4058 18.7557 19.6486C17.3287 19.92 15.8903 20.036 14.4533 19.9962C14.4247 19.9954 14.3972 20.0065 14.3774 20.027C14.1734 20.2363 13.0394 21.4006 13.0394 21.4006L11.6163 22.8612C11.5122 22.9697 11.3294 22.8959 11.3294 22.7461V19.7499C11.3294 19.7003 11.2941 19.6583 11.2454 19.6487C11.2451 19.6487 11.2449 19.6486 11.2446 19.6486C10.6251 19.5106 9.915 19.0265 9.36797 18.4403L8.25293 19.4284C8.94932 20.186 9.8475 20.7984 10.7237 21.0486V22.8573C10.7237 23.5119 11.5215 23.8334 11.9751 23.361L13.8076 21.4562C14.2051 21.4784 14.6027 21.4908 15.0004 21.4908C16.3513 21.4908 17.703 21.363 19.0447 21.1071L19.0634 21.1032C20.7227 20.7415 22.5296 19.003 22.9304 17.3827L22.9354 17.3629C23.4309 15.0999 23.4309 12.8053 22.9355 10.5424Z" fill="#D1D1D1"/>
<path d="M17.3711 18.4175C17.2035 18.3666 17.5168 18.3727 17.3711 18.4175V18.4175Z" fill="white"/>
<path d="M18.6284 16.5037C18.4085 16.31 18.171 16.1438 17.9326 15.9739C17.6897 15.8007 17.4454 15.6295 17.1932 15.4699C16.9412 15.3104 16.6422 15.3129 16.4082 15.5043C16.1688 15.7 16.0582 16.0748 15.7166 16.1147C15.5126 16.1384 15.3348 16.0526 15.1577 15.979C14.4769 15.6958 13.9603 15.2627 13.5699 14.7158L12.7402 15.4512C12.7684 15.4838 12.7953 15.5173 12.824 15.5496C13.9444 16.8105 15.3589 17.6332 16.8958 18.2709C17.0441 18.3324 17.2039 18.3666 17.3714 18.4174C17.2039 18.3665 17.5172 18.3726 17.3714 18.4174C17.5172 18.3726 17.6714 18.35 17.8007 18.2808C18.2584 18.0349 18.5756 17.6498 18.7936 17.187C18.9127 16.9343 18.8399 16.69 18.6284 16.5037Z" fill="#D1D1D1"/>
<path d="M17.8869 10.8889L17.5332 11.2025C18.0891 11.7433 18.4724 12.4601 18.582 13.2488C18.6213 13.5326 18.6358 13.8198 18.6565 14.1059C18.667 14.2504 18.7394 14.3853 18.9007 14.3834C19.0567 14.3815 19.1386 14.2442 19.1272 14.0996C19.1004 13.7559 19.079 13.4096 19.0187 13.0709C18.8638 12.2009 18.4603 11.4562 17.8869 10.8889Z" fill="#D1D1D1"/>
<path d="M18.0184 13.18C17.9171 12.5016 17.6356 11.948 17.1682 11.5262L16.8154 11.8388C16.9978 12.0007 17.1556 12.1909 17.2771 12.4006C17.4919 12.7711 17.5844 13.1965 17.5851 13.6222C17.5852 13.6872 17.5883 13.756 17.6093 13.8166C17.6797 14.0203 17.9857 13.995 18.039 13.7931C18.0538 13.7375 18.0555 13.6785 18.0588 13.6534C18.0508 13.5156 18.0555 13.6786 18.0588 13.6534C18.0508 13.5156 18.0458 13.4109 18.0379 13.3064C18.0348 13.2639 18.0247 13.2222 18.0184 13.18Z" fill="#D1D1D1"/>
<path d="M16.4538 12.1597L16.0947 12.4779C16.1145 12.49 16.1339 12.5025 16.1527 12.5162C16.3261 12.6424 16.4356 12.8333 16.4861 13.0394C16.5117 13.144 16.5212 13.2529 16.5334 13.3605C16.5499 13.5077 16.6336 13.5983 16.7874 13.6035C16.7986 13.6032 16.8096 13.603 16.8166 13.603C16.8907 13.5947 16.9649 13.5428 16.9886 13.4404C17.003 13.3785 16.9964 13.31 16.9907 13.2452C16.9461 12.7322 16.7522 12.3803 16.4538 12.1597Z" fill="#D1D1D1"/>
</g>
<defs>
<clipPath id="clip0_3257_547">
<rect width="30" height="30" fill="white"/>
</clipPath>
</defs>
</svg>
