<svg width="30" height="30" viewBox="0 0 30 30" fill="none" xmlns="http://www.w3.org/2000/svg">
<g clip-path="url(#clip0_3257_571)">
<path d="M15 30C23.2843 30 30 23.2843 30 15C30 6.71573 23.2843 0 15 0C6.71573 0 0 6.71573 0 15C0 23.2843 6.71573 30 15 30Z" fill="#75B73B"/>
<path d="M21.1082 8.89601C20.2385 8.67851 18.9595 7.92734 18.1316 7.62622C14.8993 6.61613 10.5558 7.42419 9.34371 11.1616C9.24269 11.2626 9.04066 11.2626 8.93965 11.2626C6.51539 14.0909 8.13158 17.5252 7.92955 20.6565C7.86059 21.7604 7.28016 22.7364 6.5332 23.5621L12.8193 29.8416C13.5314 29.9453 14.2594 30 15.0003 30C22.4087 30 28.5619 24.629 29.7804 17.5686L21.1082 8.89601Z" fill="#52891D"/>
<path d="M14.5803 6.35438C10.0082 6.57188 6.40033 10.3795 6.4141 14.9566C6.41832 16.3506 6.75488 17.6665 7.34867 18.8293L6.43713 23.254C6.38785 23.4934 6.60371 23.703 6.84148 23.6466L11.1771 22.6195C12.2911 23.1744 13.5422 23.4948 14.8663 23.515C19.5393 23.5864 23.4357 19.8761 23.5815 15.2047C23.7375 10.1974 19.6049 6.11502 14.5803 6.35438ZM19.7537 19.6838C18.484 20.9535 16.7957 21.6528 15 21.6528C13.9486 21.6528 12.9418 21.4168 12.0078 20.9517L11.4042 20.6508L8.74578 21.2805L9.30529 18.5644L9.00793 17.9818C8.52301 17.0322 8.27715 16.0055 8.27715 14.93C8.27715 13.1342 8.97646 11.4461 10.2461 10.1763C11.5045 8.91779 13.2203 8.20729 15.0001 8.20729C16.7956 8.20729 18.4839 8.9066 19.7536 10.1763C21.0233 11.4459 21.7226 13.1343 21.7226 14.9298C21.7227 16.7096 21.0121 18.4254 19.7537 19.6838Z" fill="white"/>
<path d="M19.1665 16.792L17.5034 16.3145C17.2849 16.2519 17.0494 16.3139 16.8901 16.4762L16.4833 16.8905C16.3118 17.0653 16.0517 17.1214 15.8247 17.0296C15.038 16.7112 13.383 15.2397 12.9606 14.5039C12.8385 14.2915 12.8587 14.0262 13.0084 13.8323L13.3634 13.3729C13.5025 13.1931 13.5318 12.9512 13.4399 12.7432L12.7402 11.1607C12.5726 10.7818 12.0883 10.6714 11.7718 10.939C11.3077 11.3317 10.757 11.9281 10.6901 12.589C10.5721 13.7543 11.0719 15.223 12.9613 16.9868C15.1444 19.0245 16.8926 19.2935 18.031 19.0178C18.6767 18.8616 19.1927 18.2347 19.5181 17.7214C19.7402 17.3712 19.5647 16.9064 19.1665 16.792Z" fill="white"/>
<path d="M20.8599 8.65479L19.5578 9.98943C19.6241 10.0507 19.69 10.1122 19.7541 10.1764C21.0239 11.4461 21.7231 13.1344 21.7231 14.9299C21.7231 16.7097 21.0125 18.4254 19.7541 19.6839C18.4845 20.9535 16.7962 21.6529 15.0004 21.6529C13.949 21.6529 12.9423 21.4169 12.0083 20.9517L11.4046 20.6509L8.74625 21.2806L8.80121 21.0138L6.44727 23.4262C6.49918 23.5823 6.66436 23.6885 6.84184 23.6464L11.1775 22.6193C12.2914 23.1742 13.5426 23.4946 14.8667 23.5148C19.5397 23.5863 23.4362 19.8759 23.5819 15.2046C23.6625 12.6186 22.5991 10.2794 20.8599 8.65479Z" fill="#D1D1D1"/>
<path d="M19.167 16.7919L17.5039 16.3145C17.2854 16.2518 17.0499 16.3139 16.8906 16.4762L16.4838 16.8904C16.3124 17.0653 16.0522 17.1213 15.8252 17.0295C15.3708 16.8456 14.6269 16.2769 13.998 15.6875L12.8418 16.8726C12.8815 16.9105 12.921 16.9484 12.9619 16.9867C15.1449 19.0245 16.8932 19.2935 18.0316 19.0178C18.6773 18.8615 19.1932 18.2347 19.5187 17.7213C19.7407 17.3711 19.5652 16.9064 19.167 16.7919Z" fill="#D1D1D1"/>
</g>
<defs>
<clipPath id="clip0_3257_571">
<rect width="30" height="30" fill="white"/>
</clipPath>
</defs>
</svg>
