<svg width="123" height="99" viewBox="0 0 123 99" fill="none" xmlns="http://www.w3.org/2000/svg">
<path d="M62.1923 5.13401e-05L6.36921 39.2113L7.8402 41.4696L5.51995 43.0961L13.9516 56.1086L16.2566 54.482L19.2593 59.1248L49.7257 37.7426C49.974 35.2927 51.2045 32.958 53.3197 31.4734C55.435 29.9888 57.9761 29.6568 60.2503 30.3364L75.0969 19.9138L62.1917 0L62.1923 5.13401e-05ZM57.9007 31.9789C54.9268 32.0068 52.2736 34.191 51.6832 37.3483V37.3641C51.0181 40.9676 53.2894 44.4639 56.7481 45.1652C60.2129 45.8677 63.5651 43.5146 64.2395 39.9063C64.9139 36.298 62.6544 32.8074 59.1894 32.1052C58.7563 32.0174 58.3255 31.9749 57.9007 31.9789ZM63.375 45.3229C62.5659 45.85 61.659 46.3129 60.6756 46.6652C59.6923 47.0176 58.7262 47.2409 57.7791 47.3443L62.2831 60.9412L66.7567 74.5699C67.5644 74.0446 68.4902 73.579 69.4713 73.2276C70.4523 72.8762 71.4186 72.6672 72.3678 72.5643L67.8789 58.9515L63.375 45.3229ZM4.62546 46.2389L0 49.492L6.18744 59.0461L10.8129 55.793L4.62546 46.2389ZM117.998 63.1206V71.4115H113.282V90.7091H117.998V99H122.821V63.1206H117.998ZM72.0485 74.4118C68.5186 74.4116 65.6492 77.3844 65.6487 81.0603V81.0761C65.657 84.7456 68.5245 87.7241 72.0485 87.7246C75.5783 87.7248 78.4325 84.7362 78.433 81.0602C78.4334 77.3842 75.5784 74.4123 72.0485 74.4118ZM79.6612 77.9808C79.9831 78.947 80.1618 79.9799 80.1617 81.0602C80.1616 82.1405 79.9848 83.1872 79.6612 84.1554H111.402V77.9808L79.6612 77.9808Z" fill="#003969"/>
</svg>
