<svg width="171" height="99" viewBox="0 0 171 99" fill="none" xmlns="http://www.w3.org/2000/svg">
<path d="M43.0902 60.9725C42.4655 60.9725 41.959 61.4612 41.959 62.0639C41.959 62.6667 42.4655 63.1554 43.0902 63.1554C43.7149 63.1554 44.2214 62.6667 44.2214 62.0639C44.2214 61.4612 43.715 60.9725 43.0902 60.9725ZM43.0902 64.0698C42.8255 64.0698 42.6107 64.2771 42.6107 64.5327C42.6107 64.7881 42.8253 64.9953 43.0902 64.9953C43.3551 64.9953 43.5697 64.7881 43.5697 64.5327C43.5697 64.2771 43.3551 64.0698 43.0902 64.0698ZM44.3609 65.49V69.2373C45.4967 69.0513 46.5456 68.6202 47.448 68.0026L44.7019 65.3529C44.5911 65.4035 44.4775 65.4497 44.3609 65.49ZM46.4993 63.6194L49.2452 66.269C49.8854 65.3984 50.3317 64.3858 50.5246 63.2899H46.6407C46.5988 63.4024 46.5518 63.5125 46.4993 63.6194ZM46.4989 60.5088C46.5514 60.6157 46.599 60.7254 46.6408 60.838H50.5246C50.3319 59.742 49.8851 58.7299 49.245 57.8591L46.4989 60.5088ZM41.4787 58.7751C41.5897 58.7243 41.7032 58.6783 41.8198 58.638V54.8907C40.6841 55.0767 39.6351 55.5078 38.7328 56.1254L41.4787 58.7751ZM43.0902 50.1491C36.2706 50.1491 30.742 55.4836 30.742 62.0641C30.742 68.6446 36.2706 73.9791 43.0902 73.9791C49.91 73.9791 55.4385 68.6446 55.4385 62.0641C55.4385 55.4836 49.91 50.1491 43.0902 50.1491ZM43.0902 70.5745C38.2189 70.5745 34.27 66.7641 34.27 62.0638C34.27 57.3636 38.2189 53.5531 43.0902 53.5531C47.9615 53.5531 51.9104 57.3636 51.9104 62.0638C51.9104 66.7641 47.9615 70.5745 43.0902 70.5745ZM43.0902 60.0575C43.3551 60.0575 43.5697 59.8503 43.5697 59.5947C43.5697 59.3393 43.3551 59.132 43.0902 59.132C42.8255 59.132 42.6107 59.3393 42.6107 59.5947C42.6109 59.8503 42.8255 60.0575 43.0902 60.0575ZM47.448 56.1249C46.5458 55.5073 45.4965 55.0763 44.3609 54.8904V58.6377C44.4775 58.678 44.5912 58.7238 44.702 58.7747L47.448 56.1249ZM39.6815 60.5083L36.9356 57.8586C36.2953 58.7293 35.8489 59.7417 35.6562 60.8376H39.5401C39.5818 60.7251 39.6288 60.6152 39.6815 60.5083ZM38.7324 68.0024C39.6348 68.62 40.6841 69.051 41.8198 69.237V65.4897C41.7032 65.4494 41.5893 65.4035 41.4785 65.3527L38.7324 68.0024ZM39.5397 63.2895H35.6562C35.8489 64.3855 36.2955 65.3978 36.9356 66.2686L39.6817 63.6187C39.6292 63.5118 39.5815 63.4021 39.5397 63.2895ZM41.0114 62.0634C41.0114 61.8078 40.7968 61.6008 40.5319 61.6008C40.267 61.6008 40.0524 61.8078 40.0524 62.0634C40.0524 62.319 40.267 62.5261 40.5319 62.5261C40.7966 62.5261 41.0114 62.319 41.0114 62.0634ZM45.1692 62.0634C45.1692 62.319 45.3838 62.5261 45.6487 62.5261C45.9136 62.5261 46.1282 62.319 46.1282 62.0634C46.1282 61.8078 45.9136 61.6008 45.6487 61.6008C45.3838 61.6009 45.1692 61.808 45.1692 62.0634ZM138.79 60.9721C138.165 60.9721 137.659 61.4609 137.659 62.0636C137.659 62.6663 138.165 63.1551 138.79 63.1551C139.415 63.1551 139.921 62.6663 139.921 62.0636C139.921 61.4609 139.415 60.9721 138.79 60.9721ZM137.179 58.7748C137.289 58.724 137.403 58.678 137.519 58.6377V54.8904C136.384 55.0763 135.335 55.5075 134.432 56.1251L137.179 58.7748ZM138.79 64.0695C138.525 64.0695 138.311 64.2767 138.311 64.5323C138.311 64.7877 138.525 64.995 138.79 64.995C139.055 64.995 139.27 64.7877 139.27 64.5323C139.269 64.2767 139.055 64.0695 138.79 64.0695ZM140.061 65.4897V69.237C141.196 69.051 142.245 68.6199 143.148 68.0023L140.402 65.3525C140.291 65.4032 140.177 65.4494 140.061 65.4897ZM142.34 63.2895C142.298 63.4021 142.251 63.5121 142.199 63.6191L144.945 66.2686C145.585 65.3981 146.031 64.3855 146.224 63.2895H142.34ZM160.273 48.2052C158.597 45.7296 154.306 44.8665 151.037 43.8365C128.21 38.5166 120.619 40.2483 116.809 39.73C116.041 39.5322 115.355 38.8847 114.727 38.5069C113.349 37.6787 111.919 36.9503 110.562 36.1477C108.318 34.8218 97.967 29.3586 95.1683 28.3716C89.0186 26.2032 79.2964 24.4644 55.869 26.2748C54.9183 26.0226 54.3444 25.2821 53.3338 25.0515C52.3341 24.8233 51.4162 25.3308 50.7079 25.4884C50.7207 26.2294 50.6522 26.8308 50.5268 27.4105C45.9483 29.2735 41.3152 30.7027 36.7634 32.5654C34.8639 33.3427 32.9041 34.1032 30.9682 34.9244C29.764 35.4354 28.6135 36.1611 27.2558 36.5846C25.7811 37.0443 24.1691 36.8366 22.5471 37.1961C19.5945 37.8507 16.3928 37.9381 13.13 37.9825C12.757 38.5993 12.1079 39.2205 11.9528 39.9922C12.518 40.1605 12.7073 40.5364 12.6772 41.3026C11.6785 42.7304 11.9463 44.7645 11.9528 47.0692C9.8254 48.1203 9.50187 51.9715 10.0513 55.0201L9.8702 55.8066C9.98392 56.6684 10.2746 57.5791 10.3228 58.5151C11.1218 59.0321 12.0274 59.8627 12.5865 60.6121C12.8593 60.9776 12.992 61.6075 13.492 61.748C16.1649 63.6306 29.7002 64.0197 29.7002 64.0197L30.4123 64.0573C30.3033 63.4082 30.2459 62.7424 30.2459 62.0638C30.2459 55.2199 35.9958 49.6719 43.0883 49.6719C50.1811 49.6719 55.9308 55.2199 55.9308 62.0638C55.9308 63.2132 55.768 65.0795 55.4643 66.1356L126.612 66.0142C126.18 64.7734 125.946 63.4451 125.946 62.0639C125.946 55.2201 131.695 49.6721 138.788 49.6721C145.881 49.6721 151.631 55.2201 151.631 62.0639C151.631 63.2635 151.453 64.4229 151.124 65.5199L151.851 65.5052C151.851 65.5052 157.456 65.2438 158.823 64.6313C160.19 64.019 160.725 62.2723 160.725 62.2723L160.362 58.6027C160.363 58.6026 162.046 50.8263 160.272 48.2052H160.273ZM46.6332 39.2068C42.3775 36.4785 44.6321 33.2929 44.5174 33.3029C44.4493 33.3614 44.4002 33.4079 44.3695 33.4394C44.4597 33.3472 44.5042 33.3041 44.5174 33.3029C45.6138 32.3601 51.8714 28.1432 74.0696 28.1097C74.7638 31.8665 75.4581 36.8019 76.1522 40.5583C67.2204 40.2971 49.6404 40.4428 46.6325 39.2068H46.6332ZM103.86 40.6039C101.909 40.6039 82.4901 40.5987 82.4901 40.5987C82.4901 40.5987 79.3555 32.6243 78.2345 28.1978C78.3649 28.2094 82.2184 28.3719 82.2184 28.3719C82.2184 28.3719 89.8473 29.2099 94.6238 30.7311C98.3817 31.9278 105.801 36.7376 105.942 37.0219C103.71 37.1321 103.182 38.8286 103.86 40.6039H103.86ZM138.788 50.1488C131.969 50.1488 126.44 55.4832 126.44 62.0638C126.44 68.6443 131.969 73.9787 138.788 73.9787C145.608 73.9787 151.137 68.6443 151.137 62.0638C151.137 55.4832 145.608 50.1488 138.788 50.1488ZM138.788 70.5741C133.917 70.5741 129.968 66.7638 129.968 62.0634C129.968 57.3632 133.917 53.5527 138.788 53.5527C143.66 53.5527 147.609 57.3632 147.609 62.0634C147.609 66.7638 143.66 70.5741 138.788 70.5741ZM135.38 60.508L132.633 57.8582C131.993 58.7289 131.547 59.7414 131.354 60.8373H135.238C135.28 60.7248 135.327 60.6149 135.38 60.508ZM136.709 62.0631C136.709 61.8075 136.495 61.6004 136.23 61.6004C135.965 61.6004 135.75 61.8075 135.75 62.0631C135.75 62.3187 135.965 62.5258 136.23 62.5258C136.495 62.5258 136.709 62.3187 136.709 62.0631ZM138.788 60.0572C139.053 60.0572 139.268 59.85 139.268 59.5944C139.268 59.339 139.053 59.1317 138.788 59.1317C138.524 59.1317 138.309 59.339 138.309 59.5944C138.309 59.85 138.524 60.0572 138.788 60.0572ZM143.146 56.1246C142.244 55.507 141.195 55.076 140.059 54.8901V58.6374C140.176 58.6776 140.289 58.7235 140.4 58.7743L143.146 56.1246ZM140.867 62.0631C140.867 62.3187 141.082 62.5258 141.347 62.5258C141.612 62.5258 141.826 62.3187 141.826 62.0631C141.826 61.8075 141.612 61.6004 141.347 61.6004C141.082 61.6006 140.867 61.8077 140.867 62.0631ZM134.431 68.0021C135.333 68.6197 136.382 69.0507 137.518 69.2366V65.4893C137.401 65.4491 137.287 65.4032 137.177 65.3524L134.431 68.0021ZM135.238 63.2892H131.354C131.547 64.3851 131.994 65.3974 132.634 66.2683L135.38 63.6184C135.327 63.5115 135.28 63.4017 135.238 63.2892ZM142.339 60.8373H146.223C146.03 59.7414 145.583 58.7293 144.943 57.8584L142.197 60.5081C142.25 60.6151 142.297 60.7248 142.339 60.8373Z" fill="#003969"/>
</svg>
