<svg width="115" height="99" viewBox="0 0 115 99" fill="none"
    xmlns="http://www.w3.org/2000/svg">
    <path
        d="M57.1522 8.26367C46.9231 8.26367 38.6007 15.9336 38.6007 25.3607C38.6007 27.2797 38.9853 29.7447 39.5375 31.3544C42.773 40.7799 55.6163 67.0584 56.1612 68.1727C56.3365 68.5312 56.7257 68.7605 57.1522 68.7605C57.5787 68.7605 57.965 68.531 58.1402 68.1727C58.6852 67.0584 71.5287 40.7799 74.7639 31.3544C75.3162 29.7447 75.7008 27.2797 75.7008 25.3607C75.7008 15.9336 67.3813 8.26367 57.1522 8.26367ZM57.1522 10.2633C66.1848 10.2633 73.531 17.0362 73.531 25.3607C73.531 27.3878 73.0968 29.5759 72.6938 30.7509C70.0128 38.5606 60.2983 58.8174 57.1522 65.315C54.0064 58.8174 44.2887 38.5612 41.6076 30.7509C41.2043 29.5759 40.7705 27.3878 40.7705 25.3607C40.7705 17.0362 48.1195 10.2633 57.1522 10.2633ZM57.1522 19.2383C53.0684 19.2383 49.7458 22.3004 49.7458 26.064C49.7458 29.8279 53.0684 32.8896 57.1522 32.8896C61.236 32.8896 64.5585 29.8279 64.5585 26.064C64.5585 22.3004 61.236 19.2383 57.1522 19.2383ZM57.1522 21.2379C60.0398 21.2379 62.3887 23.403 62.3887 26.064C62.3887 28.7252 60.0398 30.8899 57.1522 30.8899C54.2645 30.8899 51.9156 28.7252 51.9156 26.064C51.9156 23.403 54.2645 21.2379 57.1522 21.2379ZM50.0761 33.4356C48.8588 33.6417 47.6591 33.9082 46.4797 34.228C46.7337 34.8342 47.0081 35.4715 47.2913 36.1253C49.1082 35.6444 50.9709 35.2916 52.8752 35.1019C51.8472 34.6829 50.9074 34.1163 50.0761 33.4356ZM64.0004 33.6294C63.1362 34.2973 62.156 34.835 61.096 35.2277C61.8919 35.3313 62.6903 35.4546 63.4879 35.6136C64.6382 35.8421 65.758 36.1283 66.8536 36.4587C67.1329 35.8176 67.4242 35.1617 67.6765 34.5639C66.4811 34.1978 65.2571 33.881 64.0004 33.6294ZM38.3957 37.4741C30.8917 41.5703 25.0101 48.1855 22.3985 56.4527C21.8312 57.8258 24.1902 58.4566 24.5085 57.0168C26.9245 49.3686 32.3117 43.2277 39.2015 39.3766C38.9326 38.7412 38.643 38.0745 38.3957 37.4741ZM55.082 37.4893C52.7746 37.5847 50.5244 37.9442 48.3506 38.4996C48.63 39.1266 48.8988 39.7358 49.1934 40.3864C52.7701 39.5087 56.5824 39.2491 60.4638 39.7592C62.0119 39.9628 63.501 40.302 64.9487 40.7197C65.2462 40.0645 65.5113 39.4631 65.7943 38.8303C64.1778 38.3524 62.51 37.9715 60.777 37.7437C59.7869 37.6137 58.8017 37.53 57.8213 37.4894C56.9021 37.4488 55.9881 37.4537 55.082 37.4893ZM75.6466 38.0771C75.3882 38.6987 75.1089 39.3533 74.8294 40.0085C85.2612 46.3664 91.2802 57.8611 89.4143 69.9198C86.947 85.8648 71.5495 97.3231 54.1168 96.1833C36.6841 95.0435 23.1844 81.6934 23.1844 65.5871C23.1846 64.231 20.9778 64.231 20.9775 65.5871C20.9775 82.7403 35.3886 96.9927 53.9544 98.2065C72.5202 99.4204 88.9735 87.19 91.6011 70.2085C93.6114 57.2174 87.005 44.8123 75.6466 38.0771ZM56.4716 41.7221C54.2819 41.7221 52.1615 41.9974 50.1245 42.4727C50.4099 43.0942 50.7149 43.732 51.0072 44.3621C52.7656 43.9792 54.5906 43.756 56.4716 43.756C57.9411 43.7544 57.9411 41.7237 56.4716 41.7221ZM40.2266 41.7932C33.4985 45.6961 28.4332 51.9865 26.6384 59.6539C25.7945 63.2582 25.744 66.8675 26.3822 70.3084C28.2962 80.6313 36.4133 89.491 47.9378 92.5831C49.4362 93.1276 50.1338 90.9249 48.5528 90.6411C34.2776 86.8109 25.6558 73.4862 28.7911 60.0921C30.4294 53.0937 34.9993 47.3499 41.0753 43.7168C40.7893 43.0706 40.5005 42.422 40.2266 41.7932ZM73.79 42.4466C73.5178 43.068 73.2159 43.7263 72.933 44.3624C80.6981 49.4839 85.4213 58.0827 84.7016 67.4322C83.6495 81.1001 71.3395 91.683 56.4716 91.683C54.8701 91.5499 54.8701 93.8392 56.4716 93.7062C72.4754 93.7062 85.776 82.2913 86.9085 67.5792C87.696 57.3501 82.4067 47.9383 73.79 42.4466ZM63.3768 42.6224C62.0576 42.597 61.81 44.3396 63.0919 44.6273C63.114 44.6324 63.1305 44.6425 63.1487 44.6476C63.4396 44.022 63.7409 43.3919 64.0257 42.7739C63.9172 42.7435 63.813 42.7064 63.7039 42.6769C63.5981 42.6464 63.4881 42.6239 63.3768 42.6224ZM56.9016 44.9055C55.4815 44.8801 54.0774 44.9786 52.7044 45.1939C52.3005 45.2574 51.9006 45.3387 51.5027 45.4225C51.8003 46.0611 52.0939 46.6911 52.394 47.3302C55.0722 46.8224 57.8991 46.7928 60.7343 47.3556C61.0859 47.4257 61.422 47.5216 61.7651 47.6075C62.0616 46.9775 62.3505 46.3562 62.645 45.7259C62.1656 45.5995 61.6894 45.47 61.1956 45.3715C59.7576 45.0856 58.3217 44.9329 56.9016 44.9055ZM42.0148 45.8161C35.6225 49.7945 31.225 56.3259 30.642 63.8997C29.6811 76.3823 39.3701 87.4441 52.8126 89.2108C66.2552 90.9775 78.911 82.8584 81.7745 70.6258C82.4903 67.5677 82.5412 64.5076 81.9992 61.5878C80.8848 55.5792 77.2876 50.15 71.9846 46.4853C71.6904 47.1381 71.4128 47.7651 71.1133 48.422C78.0353 53.4371 81.5864 61.7941 79.6216 70.1876C76.9977 81.3967 65.4437 88.8169 53.1257 87.198C40.8078 85.579 31.9568 75.4772 32.8373 64.0389C33.3602 57.2453 37.2248 51.3857 42.8719 47.7318C42.5765 47.082 42.3042 46.4601 42.0148 45.8161ZM56.11 48.632C55.127 48.6472 54.134 48.7594 53.1401 48.9285C53.4487 49.5822 53.7375 50.2005 54.0427 50.8443C56.1263 50.5523 58.1861 50.6405 60.142 51.062C60.4451 50.4237 60.7267 49.8215 61.0333 49.1726C59.4443 48.7952 57.794 48.6012 56.11 48.632ZM43.3646 48.8102C39.4224 51.421 36.3675 55.2083 34.916 59.8031C34.5694 61.0693 36.5817 61.6152 37.0346 60.3779C38.2967 56.3828 40.8921 53.0687 44.2502 50.7259C43.9537 50.0839 43.6592 49.4545 43.3646 48.8102ZM70.6009 49.5318C70.2995 50.1897 70.0005 50.836 69.6982 51.4894C74.7429 55.5155 77.5057 61.7307 76.5009 68.2243C74.9998 77.9248 65.6477 84.8864 55.0421 84.193C44.4366 83.4996 36.2287 75.3855 36.2287 65.5869C36.229 64.2309 34.0221 64.2309 34.0219 65.5869C34.0219 76.4324 43.1413 85.4487 54.8799 86.2162C66.6185 86.9837 77.0235 79.2499 78.6849 68.513C79.8323 61.098 76.537 53.9805 70.6009 49.5318ZM44.9962 52.3424C40.0574 55.9846 37.3027 61.8605 38.2505 67.9857C39.6122 76.7855 48.155 83.1268 57.7757 82.4977C67.3966 81.8687 74.8635 74.4757 74.8636 65.5869C74.9347 64.169 72.5888 64.169 72.6597 65.5869C72.6597 73.4289 66.1012 79.9194 57.6135 80.4744C49.1257 81.0293 41.6386 75.463 40.4373 67.6996C39.6316 62.4924 41.8455 57.5066 45.896 54.2844C45.5979 53.6474 45.2979 52.9916 44.9962 52.3424ZM56.298 52.8724C55.8786 52.8775 55.4594 52.903 55.0421 52.9431C55.7578 54.4476 56.5005 56.0121 57.1436 57.3624C57.7611 56.066 58.4769 54.559 59.1625 53.1189C58.2196 52.9447 57.2595 52.8628 56.298 52.8724ZM68.9351 53.1401C68.6062 53.8464 68.3272 54.438 68.004 55.1267C69.828 56.8358 71.2381 58.9659 72.0133 61.4197C72.4662 62.657 74.4784 62.1111 74.1317 60.845C73.1649 57.7844 71.3217 55.1662 68.9351 53.1401ZM46.9183 56.431C43.7187 59.2607 42.1899 63.3353 42.8093 67.382C43.8307 73.9896 50.2215 78.745 57.4454 78.2726C64.6697 77.8009 70.2686 72.2615 70.2677 65.5869L69.7153 62.0337C69.1654 60.3071 68.2238 58.7079 66.9533 57.3416C63.9696 63.6482 61.3893 68.9462 61.1557 69.4237C60.5676 70.6278 59.1949 71.1567 57.8213 71.4075H56.4744C55.1049 71.1567 53.74 70.6337 53.1486 69.4237C52.9028 68.9214 50.1146 63.2037 46.9183 56.431Z"
        fill="#06A77D" />
</svg>