<svg width="73" height="66" viewBox="0 0 73 66" fill="none"
    xmlns="http://www.w3.org/2000/svg">
    <path
        d="M39.0873 2.2938C59.7206 20.6032 59.7206 45.1842 39.0873 63.4915M9.72638 52.3238C25.5921 42.1361 46.8922 42.1361 62.759 52.3238M33.9899 2C13.2135 20.435 13.2135 45.1873 33.9899 63.6223M36.2427 2.03218V63.668M70.4854 32.8496H2M9.72638 14.3076C25.5921 24.4943 46.8922 24.4943 62.759 14.3076M36.0662 2.03218C17.1552 2.11939 1.90311 15.9874 2.00116 33.0074C2.0969 50.0294 17.507 63.7542 36.4192 63.668C55.3291 63.5798 70.5823 49.7128 70.4843 32.6918C70.3885 15.7954 55.193 2.11939 36.4192 2.03218H36.0662Z"
        stroke="#06A77D" stroke-width="3.0446" />
</svg>