<svg width="100" height="99" viewBox="0 0 100 99" fill="none" xmlns="http://www.w3.org/2000/svg">
<g clip-path="url(#clip0_3265_32)">
<path d="M87.5157 98.8388C94.0516 98.8388 99.3542 93.5546 99.3542 87.0251V11.6654C99.3542 5.14786 94.0516 -0.154785 87.5157 -0.154785H12.1688C5.65127 -0.154785 0.348633 5.14786 0.348633 11.6654V87.0251C0.348633 93.5546 5.65127 98.8388 12.1688 98.8388H87.5157Z" fill="white"/>
<path d="M12.1712 1.85767C6.76194 1.85767 2.36084 6.25877 2.36084 11.668V87.0277C2.36084 92.4433 6.76194 96.8444 12.1712 96.8444H87.518C92.9401 96.8444 97.3412 92.4433 97.3412 87.0277V11.668C97.3412 6.25877 92.9401 1.85767 87.518 1.85767H12.1712Z" fill="#0673CF"/>
<path d="M75.153 13.3267C76.5426 13.3267 77.6573 14.447 77.6573 15.8125V24.3334H22.7324V15.8309C22.7324 14.4662 23.8471 13.3515 25.2183 13.3515L75.153 13.3267ZM38.8976 21.6096C40.4001 21.6096 41.627 20.3635 41.627 18.8545C41.627 17.3455 40.4001 16.1186 38.8976 16.1186C37.395 16.1186 36.1681 17.3519 36.1681 18.8545C36.1681 20.357 37.3886 21.6096 38.8976 21.6096ZM30.8527 21.6096C32.3801 21.6096 33.5821 20.3635 33.5821 18.8545C33.5821 17.3455 32.3801 16.1186 30.8527 16.1186C29.3501 16.1186 28.1232 17.3519 28.1232 18.8545C28.1232 20.357 29.3501 21.6096 30.8527 21.6096Z" fill="white"/>
<path d="M22.5952 85.8167V30.6787C22.5952 29.3076 23.7155 28.1929 25.0811 28.1929H75.035C76.4062 28.1929 77.5209 29.3076 77.5209 30.6787V85.8352L22.5952 85.8167ZM49.7728 73.2769C59.5398 73.2769 67.4653 65.3506 67.4653 55.5844C67.4653 45.8181 59.539 37.891 49.7728 37.891C40.0001 37.891 32.0866 45.8173 32.0866 55.5836C32.0866 65.3498 39.9993 73.2769 49.7728 73.2769Z" fill="white"/>
<path d="M64.0974 51.0534C64.4732 52.3428 64.6672 53.702 64.6672 55.1228C64.6672 63.324 57.9934 69.9729 49.7922 69.9729C41.5782 69.9729 34.9229 63.324 34.9229 55.1228C34.9229 53.5954 35.1609 52.1305 35.568 50.7529V50.7778C36.52 51.8043 37.8719 52.4558 39.3929 52.4558C40.7135 52.4558 41.8971 51.9798 42.8171 51.16H42.7987C43.7251 51.9798 44.9335 52.4558 46.2422 52.4558C47.6005 52.4558 48.8466 51.9365 49.773 51.0534V51.0719C50.6929 51.9365 51.9262 52.4558 53.2974 52.4558C54.7062 52.4558 56.002 51.8989 56.9164 50.9909V51.0094C57.8363 51.9173 59.1073 52.4558 60.5225 52.4558C61.8872 52.4558 63.1582 51.9173 64.079 51.035L64.0974 51.0534Z" fill="white"/>
</g>
<defs>
<clipPath id="clip0_3265_32">
<rect width="99.0064" height="99" fill="white"/>
</clipPath>
</defs>
</svg>
