<svg width="150" height="40" viewBox="0 0 150 40" fill="none" xmlns="http://www.w3.org/2000/svg">
<g clip-path="url(#clip0_3218_198)">
<path fill-rule="evenodd" clip-rule="evenodd" d="M19.2619 0.250488C18.1781 0.250488 15.653 0.853337 14.0273 1.61226C12.4016 2.37118 9.33289 4.35142 9.33289 4.35142C9.33289 4.35142 2.10081 10.8693 1.37831 12.0839C0.65582 13.2985 0.297852 15.8874 0.297852 15.8874C0.297852 15.8874 16.0169 12.0934 17.1012 12.3969C18.1855 12.7004 18.9081 14.823 18.9081 14.823L26.3036 38.959C26.3036 38.959 29.7482 38.3548 30.2901 38.0512C30.832 37.7476 33.3638 34.8581 33.3638 34.8581C33.3638 34.8581 40.2251 30.9166 42.2125 30.0059C44.2 29.0953 49.0667 27.4247 51.4154 26.9694C53.7641 26.5141 55.7558 26.5155 55.7558 26.5155L143.015 28.3311C143.015 28.3311 150.046 26.2024 149.685 21.1937C149.138 13.6171 141.749 13.0075 141.749 13.0075L70.7577 13.6023C71.119 13.4505 57.3928 13.7588 55.9478 13.7588C54.5028 13.7588 44.0266 10.8693 41.6779 10.5658C39.3292 10.2622 27.572 3.73688 26.8495 3.58461C26.127 3.43235 20.3513 0.250714 19.2675 0.250714L19.2619 0.250488ZM140.739 16.0279C143.979 16.0279 146.625 18.2511 146.625 20.974C146.625 23.697 143.979 25.9045 140.739 25.9045C137.498 25.9045 134.871 23.697 134.871 20.974C134.871 18.2511 137.498 16.0279 140.739 16.0279Z" fill="#003969" stroke="#003969"/>
<path fill-rule="evenodd" clip-rule="evenodd" d="M25.1383 35.3115C25.1383 35.3115 15.9253 33.9454 12.4935 32.5794C10.527 31.7968 7.27596 30.2939 5.39789 29.0234C3.99809 28.0765 3.64209 27.1912 3.64209 27.1912L21.345 23.0173L25.1383 35.3115Z" fill="#003969" stroke="#003969" stroke-width="0.3"/>
</g>
<defs>
<clipPath id="clip0_3218_198">
<rect width="150" height="39.2045" fill="white"/>
</clipPath>
</defs>
</svg>
