<svg width="11" height="15" viewBox="0 0 11 15" fill="none" xmlns="http://www.w3.org/2000/svg">
<path d="M3.08249 0.0136719C3.08249 0.0136719 -0.0400958 0.056722 0.00039032 3.02253C0.0408765 5.98833 0.608827 8.61078 1.54158 10.0722C2.47434 11.5337 4.8666 15.3594 7.58389 14.9727C7.58389 14.9727 8.92222 14.6717 9.93581 13.9838L6.65113 11.2757C6.65113 11.2757 5.67789 11.9205 5.0696 11.0607C4.46131 10.2009 2.55531 6.20358 2.55531 6.20358C2.55531 6.20358 2.02813 4.91388 3.20423 4.35513L3.08249 0.0136719Z" fill="#393939"/>
<path d="M3.44727 0.0136561C3.44727 0.0136561 3.69061 -0.071994 4.13653 0.185706C4.58245 0.443407 4.58259 0.658207 4.58259 0.658207L4.62322 3.62446C4.62322 3.62446 4.50148 3.79651 4.33939 3.96811C4.17716 4.14001 3.64998 4.39816 3.56872 4.22611C3.48789 4.05436 3.44727 0.0136561 3.44727 0.0136561Z" fill="#393939"/>
<path d="M6.92383 10.9587L7.82683 10.4589C7.82683 10.4589 8.02954 10.4162 8.35386 10.6308C8.67832 10.8462 10.3816 12.2648 10.3816 12.2648C10.3816 12.2648 10.6654 12.5226 10.5843 12.8235C10.5032 13.1244 10.3005 13.7693 10.3005 13.7693L6.92383 10.9587Z" fill="#393939"/>
</svg>
