<svg width="24" height="13" viewBox="0 0 24 13" fill="none" xmlns="http://www.w3.org/2000/svg">
<path d="M4.3125 8.5625L6.57031 0.625H7.66406L7.03125 3.71094L4.60156 12H3.51562L4.3125 8.5625ZM1.97656 0.625L3.77344 8.40625L4.3125 12H3.23438L0.476562 0.625H1.97656ZM10.5859 8.39844L12.3438 0.625H13.8516L11.1016 12H10.0234L10.5859 8.39844ZM7.82812 0.625L10.0234 8.5625L10.8203 12H9.73438L7.39062 3.71094L6.75 0.625H7.82812ZM22.3906 8.38281H23.8906C23.8125 9.10156 23.6068 9.74479 23.2734 10.3125C22.9401 10.8802 22.4688 11.3307 21.8594 11.6641C21.25 11.9922 20.4896 12.1562 19.5781 12.1562C18.9115 12.1562 18.3047 12.0312 17.7578 11.7812C17.2161 11.5312 16.75 11.1771 16.3594 10.7188C15.9688 10.2552 15.6667 9.70052 15.4531 9.05469C15.2448 8.40365 15.1406 7.67969 15.1406 6.88281V5.75C15.1406 4.95312 15.2448 4.23177 15.4531 3.58594C15.6667 2.9349 15.9714 2.3776 16.3672 1.91406C16.7682 1.45052 17.25 1.09375 17.8125 0.84375C18.375 0.59375 19.0078 0.46875 19.7109 0.46875C20.5703 0.46875 21.2969 0.630208 21.8906 0.953125C22.4844 1.27604 22.9453 1.72396 23.2734 2.29688C23.6068 2.86458 23.8125 3.52344 23.8906 4.27344H22.3906C22.3177 3.74219 22.1823 3.28646 21.9844 2.90625C21.7865 2.52083 21.5052 2.22396 21.1406 2.01562C20.776 1.80729 20.2995 1.70312 19.7109 1.70312C19.2057 1.70312 18.7604 1.79948 18.375 1.99219C17.9948 2.1849 17.6745 2.45833 17.4141 2.8125C17.1589 3.16667 16.9661 3.59115 16.8359 4.08594C16.7057 4.58073 16.6406 5.13021 16.6406 5.73438V6.88281C16.6406 7.4401 16.6979 7.96354 16.8125 8.45312C16.9323 8.94271 17.112 9.3724 17.3516 9.74219C17.5911 10.112 17.8958 10.4036 18.2656 10.6172C18.6354 10.8255 19.0729 10.9297 19.5781 10.9297C20.2188 10.9297 20.7292 10.8281 21.1094 10.625C21.4896 10.4219 21.776 10.1302 21.9688 9.75C22.1667 9.36979 22.3073 8.91406 22.3906 8.38281Z" fill="#393939"/>
</svg>
