<svg width="22" height="20" viewBox="0 0 22 20" fill="none" xmlns="http://www.w3.org/2000/svg">
<path d="M11.8252 1.08576C17.8477 6.42996 17.8477 13.6048 11.8252 18.9484M3.2552 15.6887C7.88615 12.7151 14.1033 12.7151 18.7346 15.6887M10.3373 1C4.27304 6.38087 4.27304 13.6057 10.3373 18.9865M10.9949 1.00939V18.9999M20.9898 10.0045H1M3.2552 4.5924C7.88615 7.56571 14.1033 7.56571 18.7346 4.5924M10.9434 1.00939C5.42354 1.03485 0.971718 5.0827 1.00034 10.0505C1.02828 15.019 5.52623 19.025 11.0464 18.9999C16.5659 18.9741 21.0181 14.9266 20.9894 9.95843C20.9615 5.02664 16.5262 1.03485 11.0464 1.00939H10.9434Z" stroke="#393939"/>
</svg>
