<?xml version="1.0" encoding="UTF-8"?>
<svg viewBox="0 0 744.09447 1052.362179" xmlns="http://www.w3.org/2000/svg">
 <path d="m135.24 218.7h466.1a59.698 59.698 0 0 1 59.698 59.698v425.9a59.698 59.698 0 0 1 -59.698 59.698h-466.1a59.698 59.698 0 0 1 -59.698 -59.698v-425.9a59.698 59.698 0 0 1 59.698 -59.698" fill="#fff" fill-rule="evenodd" stroke="#06d106" stroke-linecap="round" stroke-linejoin="round" stroke-width="90.595"/>
 <path d="m347 294.74c-15.609 1.3517-29.034 15.263-31.628 33.928l-2.8752 21.277c-0.5774 1.0227-1.2176 1.9796-1.7252 3.067l-55.588 119.23c-2.2496 4.8193-3.5652 9.8737-4.0254 14.76h-30.094c-19.705 0-35.653 15.756-35.653 35.462v112.52c0 19.705 15.948 35.653 35.653 35.653h52.33c11.978 10.839 27.737 17.443 45.238 17.443h71.307c37.439 0 67.473-30.034 67.473-67.473v-115.97c0-37.439-30.034-67.473-67.473-67.473h-22.044l13.61-98.909c2.9652-21.332-9.2642-40.618-27.602-43.321-2.2923-0.338-4.6709-0.38427-6.9006-0.19113z" fill="#06d106"/>
 <path transform="rotate(90)" d="m465.53-527.48h4.3693a28.426 28.426 0 0 1 28.426 28.426v96.216a28.426 28.426 0 0 1 -28.426 28.426h-4.3693a28.426 28.426 0 0 1 -28.426 -28.426v-96.216a28.426 28.426 0 0 1 28.426 -28.426" fill="#06d106" stroke="#fff" stroke-width="10.867"/>
 <path transform="rotate(90)" d="m530.69-551.08a30.611 30.611 0 0 1 30.611 30.611v115.45a30.611 30.611 0 0 1 -30.611 30.611 30.611 30.611 0 0 1 -30.611 -30.611v-115.45a30.611 30.611 0 0 1 30.611 -30.611" fill="#06d106" stroke="#fff" stroke-width="10.867"/>
 <path transform="rotate(90)" d="m593.66-531.53a30.611 30.611 0 0 1 30.611 30.611v95.892a30.611 30.611 0 0 1 -30.611 30.611 30.611 30.611 0 0 1 -30.611 -30.611v-95.892a30.611 30.611 0 0 1 30.611 -30.611" fill="#06d106" stroke="#fff" stroke-width="10.867"/>
 <path transform="rotate(90)" d="m656.63-510.62a30.611 30.611 0 0 1 30.611 30.611v74.989a30.611 30.611 0 0 1 -30.611 30.611 30.611 30.611 0 0 1 -30.611 -30.611v-74.989a30.611 30.611 0 0 1 30.611 -30.611" fill="#06d106" stroke="#fff" stroke-width="10.867"/>
</svg>
